<?xml version="1.0" encoding="UTF-8"?>
<svg id="Layer_1" data-name="Layer 1" xmlns="http://www.w3.org/2000/svg" viewBox="0 0 44 44">
  <defs>
    <style>
      .cls-1 {
        fill: #231f20;
      }

      .cls-1, .cls-2 {
        stroke: #231f20;
        stroke-miterlimit: 10;
        stroke-width: .25px;
      }

      .cls-2 {
        fill: #febe18;
      }
    </style>
  </defs>
  <path class="cls-2" d="m39.15,9.89c-.08.1-.15.21-.23.31-.12.16-.23.31-.34.47-.21.29-.41.58-.61.87h0c-.22.31-.43.62-.64.93-.33.48-.65.97-.97,1.47-.17.27-.34.53-.51.8-.47.75-.92,1.5-1.37,2.27-.12.2-.23.4-.34.6-.31.55-.62,1.11-.92,1.67-.4.75-.79,1.5-1.16,2.27-.05.09-.09.19-.14.28-.32.66-.63,1.31-.93,1.98-.34.75-.66,1.5-.98,2.26-.1.25-.21.5-.31.76-.2.5-.39,1-.58,1.51-.28.75-.55,1.5-.81,2.26-.25.75-.49,1.5-.72,2.26l-4.6.04-.21-22.55,2.25-.02.19,20.29h.74c.24-.77.5-1.52.77-2.27.23-.64.46-1.27.71-1.9.05-.12.09-.24.14-.36.3-.76.61-1.52.93-2.26.33-.76.67-1.52,1.02-2.26.04-.08.07-.15.11-.23.33-.68.66-1.36,1-2.03.39-.76.79-1.51,1.21-2.26,0,0,0,0,0,0,.43-.76.86-1.52,1.32-2.27.29-.49.6-.97.9-1.46.17-.27.35-.54.52-.81.35-.54.71-1.08,1.08-1.61-.49-.19-.96-.4-1.42-.65-.07-.04-.14-.08-.21-.11-.81-.45-1.57-.98-2.27-1.58-.2-.17-.39-.35-.58-.53-.63-.61-1.2-1.29-1.7-2.01-.05-.07-.1-.15-.15-.22-.46-.7-.86-1.45-1.18-2.24l-12.73.12c-.25.79-.57,1.55-.96,2.26-.23.42-.48.83-.75,1.23-.25.36-.51.71-.79,1.04-.44.52-.92,1.01-1.44,1.46-.33.29-.67.56-1.03.81-.39.28-.79.53-1.21.77-.33.18-.66.35-1,.51.23.33.45.66.68.99.12.17.23.35.35.52.37.57.74,1.14,1.1,1.72.41.66.81,1.33,1.19,2,.05.08.09.16.14.24.42.74.83,1.49,1.23,2.24.32.6.62,1.2.92,1.81.07.14.14.29.21.43.36.74.71,1.49,1.04,2.24.33.74.65,1.49.96,2.25.03.08.06.15.09.23.27.67.53,1.34.78,2.02.27.74.54,1.49.79,2.25h.73s-.17-18.04-.17-18.04l-4.51.04-.02-2.25,6.76-.06.21,22.55-4.59.04c-.24-.75-.49-1.5-.75-2.25-.26-.75-.54-1.5-.83-2.25-.21-.55-.43-1.09-.66-1.64-.08-.2-.17-.41-.26-.61-.32-.76-.65-1.5-1-2.25-.34-.73-.69-1.45-1.05-2.17-.01-.02-.02-.05-.04-.07-.38-.76-.77-1.5-1.18-2.24-.35-.64-.71-1.27-1.08-1.9-.07-.11-.13-.23-.2-.34-.45-.76-.91-1.5-1.38-2.24-.23-.36-.47-.72-.71-1.08-.26-.39-.52-.78-.79-1.16-.06-.08-.11-.17-.17-.25-.4-.58-.81-1.15-1.23-1.71.29-.09.58-.18.87-.29.44-.16.87-.35,1.28-.56h0s0,0,0,0c.8-.4,1.55-.88,2.24-1.42.13-.1.26-.2.38-.31.68-.57,1.3-1.21,1.85-1.91.1-.12.19-.24.28-.36.52-.71.97-1.46,1.35-2.27.23-.48.42-.98.59-1.5.08-.25.16-.51.22-.76l2.02-.02v.05s0-.03,0-.05l13.39-.13c.04.12.09.25.14.37.25.65.55,1.28.89,1.88.41.7.87,1.37,1.4,1.98.07.09.15.17.23.26.62.69,1.3,1.31,2.05,1.86.18.13.36.25.54.37.55.36,1.13.68,1.73.96.19.09.39.17.59.25.54.22,1.1.4,1.68.55.19.05.38.09.58.13Z"/>
  <polygon class="cls-1" points="21.85 42.73 26.13 35.15 17.43 35.23 21.85 42.73"/>
</svg>