<?xml version="1.0" encoding="UTF-8"?>
<svg id="Layer_1" data-name="Layer 1" xmlns="http://www.w3.org/2000/svg" viewBox="0 0 72.06 86.53">
  <defs>
    <style>
      .cls-1 {
        fill: #febe18;
      }

      .cls-1, .cls-2 {
        stroke: #fff;
        stroke-miterlimit: 10;
      }

      .cls-2 {
        fill: #fff;
      }
    </style>
  </defs>
  <path class="cls-1" d="m71.18,18.18c-.16.21-.31.42-.47.64-.24.32-.47.64-.7.97-.43.59-.85,1.18-1.26,1.78h0c-.44.63-.88,1.27-1.31,1.91-.68.99-1.34,2-1.99,3.01-.35.55-.7,1.09-1.05,1.65-.96,1.53-1.89,3.08-2.8,4.65-.24.41-.47.82-.71,1.23-.64,1.13-1.27,2.27-1.88,3.42-.82,1.53-1.61,3.08-2.38,4.65-.1.19-.19.39-.29.58-.65,1.34-1.29,2.7-1.9,4.06-.69,1.54-1.36,3.08-2,4.64-.21.52-.42,1.03-.63,1.55-.41,1.03-.81,2.06-1.2,3.09-.57,1.54-1.12,3.08-1.65,4.64-.52,1.54-1.02,3.08-1.48,4.64l-9.43.09-.44-46.25,4.62-.04.4,41.62h1.52c.5-1.57,1.03-3.12,1.57-4.66.47-1.31.95-2.61,1.45-3.9.1-.25.19-.5.29-.74.61-1.56,1.25-3.11,1.91-4.64.67-1.56,1.37-3.11,2.1-4.64.08-.16.15-.32.23-.48.67-1.4,1.35-2.79,2.06-4.17.8-1.56,1.63-3.11,2.48-4.64,0,0,0,0,0-.01.87-1.57,1.77-3.12,2.7-4.65.6-1,1.22-2,1.85-2.99.35-.56.71-1.11,1.07-1.67.72-1.11,1.46-2.21,2.21-3.29-1-.39-1.97-.83-2.91-1.33-.15-.08-.29-.16-.43-.23-1.66-.92-3.23-2.01-4.66-3.24-.41-.35-.8-.71-1.19-1.09-1.29-1.25-2.46-2.64-3.49-4.13-.11-.15-.21-.3-.31-.46-.95-1.44-1.76-2.98-2.43-4.6l-26.12.25c-.51,1.62-1.17,3.17-1.96,4.64-.47.87-.98,1.71-1.53,2.52-.51.74-1.05,1.45-1.62,2.14-.91,1.08-1.89,2.08-2.95,3-.67.59-1.38,1.15-2.11,1.67-.8.57-1.63,1.09-2.48,1.57-.67.38-1.35.72-2.05,1.04.47.68.93,1.36,1.39,2.04.24.36.47.71.71,1.07.76,1.17,1.51,2.34,2.25,3.53.84,1.35,1.65,2.72,2.45,4.11.1.16.19.33.28.49.87,1.52,1.71,3.05,2.53,4.6.65,1.23,1.28,2.47,1.9,3.72.15.29.29.59.43.88.74,1.52,1.45,3.06,2.14,4.6.68,1.52,1.33,3.06,1.96,4.61.06.16.13.31.19.47.55,1.37,1.09,2.75,1.6,4.14.56,1.53,1.1,3.06,1.62,4.61h1.49s-.35-37.01-.35-37.01l-9.25.09-.04-4.62,13.87-.13.44,46.25-9.42.09c-.49-1.55-1-3.08-1.54-4.61-.54-1.55-1.11-3.09-1.7-4.61-.44-1.12-.88-2.25-1.35-3.36-.17-.42-.35-.83-.53-1.25-.65-1.55-1.34-3.08-2.04-4.61-.69-1.5-1.41-2.98-2.15-4.45-.02-.05-.05-.1-.07-.15-.78-1.55-1.59-3.08-2.42-4.6-.72-1.31-1.46-2.62-2.21-3.9-.14-.23-.27-.47-.41-.7-.92-1.55-1.87-3.08-2.84-4.6-.48-.74-.96-1.48-1.45-2.22-.53-.8-1.07-1.59-1.62-2.38-.12-.17-.23-.34-.36-.51-.82-1.18-1.66-2.35-2.52-3.51.6-.18,1.19-.38,1.77-.59.9-.34,1.78-.72,2.62-1.14h0s0,0,.02,0c1.63-.82,3.17-1.8,4.6-2.92.26-.21.52-.42.78-.64,1.4-1.18,2.67-2.49,3.8-3.92.2-.24.38-.49.57-.74,1.07-1.45,2-3,2.76-4.65.46-.99.87-2.02,1.21-3.07.17-.52.32-1.04.46-1.57l4.15-.04v.1s0-.07.01-.1l27.47-.26c.09.25.18.51.28.76.51,1.34,1.13,2.62,1.83,3.85.83,1.44,1.79,2.8,2.87,4.06.15.18.31.35.46.53,1.26,1.41,2.67,2.69,4.2,3.81.36.27.73.52,1.11.77,1.12.74,2.31,1.4,3.55,1.98.4.18.8.36,1.2.52,1.11.45,2.26.83,3.44,1.13.39.1.79.19,1.19.28Z"/>
  <polygon class="cls-2" points="35.7 85.53 44.48 69.98 26.63 70.15 35.7 85.53"/>
</svg>